# xmcd
#
# Track frame offsets: 
#        150
#        15506
#        30131
#        47605
#        64295
#        81006
#        99032
#        115518
#        131822
#        148218
#
# Disc length: 2197 seconds
#
# Revision: 0
# Processed by: cddbd v1.5.2PL0 Copyright (c) Steve Scherf et al.
# Submitted via: ExactAudioCopy v0.99pb5
#
DISCID=7408930a
DTITLE=Granger Smith - Waiting On Forever
DYEAR=1999
DGENRE=Country
TTITLE0=As It Is In Texas
TTITLE1=Too Lonely, Too Long
TTITLE2=Because Of You
TTITLE3=What It Takes To Love
TTITLE4=Count The Stars
TTITLE5=Something About Her Blue Eyes
TTITLE6=Little Town
TTITLE7=Where Is She Now
TTITLE8=Waiting On Forever
TTITLE9=Monterrey
EXTD=
EXTT0=
EXTT1=
EXTT2=
EXTT3=
EXTT4=
EXTT5=
EXTT6=
EXTT7=
EXTT8=
EXTT9=
PLAYORDER=
